HIERARCHY
ROOT Hips
{
	OFFSET 0.000000 0.000000 0.000000
	CHANNELS 6 Xposition Yposition Zposition Zrotation Yrotation Xrotation 
	JOINT LeftUpLeg_virtual
	{
		OFFSET 0.000000 0.000000 0.000000
		CHANNELS 3 Zrotation Yrotation Xrotation
		JOINT LeftUpLeg
		{
			OFFSET 8.479694 -4.795517 -0.379053
			CHANNELS 3 Zrotation Yrotation Xrotation
			JOINT LeftLeg
			{
				OFFSET 0.485052 -32.551468 0.112863
				CHANNELS 3 Zrotation Yrotation Xrotation
				JOINT LeftFoot
				{
					OFFSET 0.438033 -32.635670 -3.012641
					CHANNELS 3 Zrotation Yrotation Xrotation
					JOINT LeftToeBase
					{
						OFFSET 0.970169 -13.225353 11.864223
						CHANNELS 3 Zrotation Yrotation Xrotation
						End Site
						{
							OFFSET 0.000000 0.000000 0.000000
						}
					}
				}
			}
		}
	}
	JOINT RightUpLeg_virtual
	{
		OFFSET 0.000000 0.000000 0.000000
		CHANNELS 3 Zrotation Yrotation Xrotation
		JOINT RightUpLeg
		{
			OFFSET -8.479694 -4.795517 -0.379053
			CHANNELS 3 Zrotation Yrotation Xrotation
			JOINT RightLeg
			{
				OFFSET -0.484100 -32.551483 0.112903
				CHANNELS 3 Zrotation Yrotation Xrotation
				JOINT RightFoot
				{
					OFFSET -0.438985 -32.635651 -3.012681
					CHANNELS 3 Zrotation Yrotation Xrotation
					JOINT RightToeBase
					{
						OFFSET -0.970169 -13.225354 11.864223
						CHANNELS 3 Zrotation Yrotation Xrotation
						End Site
						{
							OFFSET 0.000000 0.000000 0.000000
						}
					}
				}
			}
		}
	}
	JOINT Spine_virtual
	{
		OFFSET 0.000000 0.000000 0.000000
		CHANNELS 3 Zrotation Yrotation Xrotation
		JOINT Spine
		{
			OFFSET 0.000000 7.722015 1.166203
			CHANNELS 3 Zrotation Yrotation Xrotation
			JOINT Spine1
			{
				OFFSET 0.000000 12.024086 0.248766
				CHANNELS 3 Zrotation Yrotation Xrotation
				JOINT Spine2
				{
					OFFSET -0.000000 11.503036 -0.491240
					CHANNELS 3 Zrotation Yrotation Xrotation
					JOINT Neck_virtual
					{
						OFFSET 0.000000 0.000000 0.000000
						CHANNELS 3 Zrotation Yrotation Xrotation
						JOINT Neck
						{
							OFFSET 0.000000 18.430687 -3.123054
							CHANNELS 3 Zrotation Yrotation Xrotation
							JOINT Head
							{
								OFFSET -0.000000 9.051071 1.034021
								CHANNELS 3 Zrotation Yrotation Xrotation
								End Site
								{
									OFFSET 0.000000 0.000000 0.000000
								}
							}
						}
					}
					JOINT LeftShoulder_virtual
					{
						OFFSET 0.000000 0.000000 0.000000
						CHANNELS 3 Zrotation Yrotation Xrotation
						JOINT LeftShoulder
						{
							OFFSET 6.197824 13.665230 -4.064723
							CHANNELS 3 Zrotation Yrotation Xrotation
							JOINT LeftArm
							{
								OFFSET 7.778132 -0.187073 -1.709282
								CHANNELS 3 Zrotation Yrotation Xrotation
								JOINT LeftForeArm
								{
									OFFSET 21.954697 0.000000 -2.041093
									CHANNELS 3 Zrotation Yrotation Xrotation
									JOINT LeftHand
									{
										OFFSET 22.992908 0.000000 -0.870901
										CHANNELS 3 Zrotation Yrotation Xrotation
										End Site
										{
											OFFSET 0.000000 0.000000 0.000000
										}
									}
								}
							}
						}
					}
					JOINT RightShoulder_virtual
					{
						OFFSET 0.000000 0.000000 0.000000
						CHANNELS 3 Zrotation Yrotation Xrotation
						JOINT RightShoulder
						{
							OFFSET -6.197824 13.665230 -4.064723
							CHANNELS 3 Zrotation Yrotation Xrotation
							JOINT RightArm
							{
								OFFSET -7.778132 -0.187073 -1.709282
								CHANNELS 3 Zrotation Yrotation Xrotation
								JOINT RightForeArm
								{
									OFFSET -21.954697 0.000000 -2.041093
									CHANNELS 3 Zrotation Yrotation Xrotation
									JOINT RightHand
									{
										OFFSET -22.992908 0.000000 -0.870901
										CHANNELS 3 Zrotation Yrotation Xrotation
										End Site
										{
											OFFSET 0.000000 0.000000 0.000000
										}
									}
								}
							}
						}
					}
				}
			}
		}
	}
}
MOTION
Frames: 5
Frame Time: 0.033333
-4.931958 81.040352 0.563684 -179.721238 8.300437 -179.694682 -3.771219 3.237017 34.146957 -2.774779 6.617451 -68.660046 1.998451 4.928047 48.516248 -8.155288 -6.267408 -4.652695 0.000000 0.000000 0.000000 1.322427 0.209173 31.905432 -4.377169 -8.837504 -58.588748 0.312234 4.235383 43.531453 9.390813 3.350897 -2.392869 0.000000 0.000000 0.000000 10.438484 -2.109174 51.911077 -9.600037 -2.935871 33.146450 0.126568 0.379634 3.822879 -0.016896 0.027308 -0.009285 0.545253 0.773893 5.218759 -2.591322 -0.565460 -30.122534 0.000000 0.000000 0.000000 0.873623 2.010130 1.077464 6.436103 -21.084651 -5.660543 -63.208784 -52.218077 19.356099 10.673531 -51.194146 -2.042586 0.000000 0.000000 0.000000 -2.654509 3.467585 0.688039 5.166515 19.762941 3.584769 27.879744 46.621895 -19.853161 -7.411811 62.042638 -7.525393 0.000000 0.000000 0.000000 
-4.635635 81.106606 0.403221 -179.692428 7.971004 -179.471376 -3.700194 3.384716 31.228485 -1.964854 6.136780 -66.123335 2.392903 4.558941 49.217810 -8.743902 -6.414315 -4.612163 0.000000 0.000000 0.000000 1.133869 0.731590 28.584430 -4.022000 -9.096860 -55.491315 0.123273 4.164030 43.869335 9.265890 3.167728 -1.721321 0.000000 0.000000 0.000000 10.673790 -1.210476 46.959214 -10.097134 -3.098428 31.606581 -0.068423 0.532468 4.349126 -0.038686 0.010176 0.047398 0.376866 0.971121 5.724721 -2.962888 -0.376780 -29.831203 0.000000 0.000000 0.000000 0.754097 2.129159 1.716373 6.342597 -20.874639 -5.286350 -63.601478 -50.948608 20.440951 10.886362 -52.349814 -1.543712 0.000000 0.000000 0.000000 -2.693365 3.631735 1.278913 5.613499 18.599133 4.371866 29.793780 45.375187 -16.968288 -7.578819 62.991529 -8.279927 0.000000 0.000000 0.000000 
-4.398775 81.237823 0.200861 -179.714134 7.518075 -179.334977 -3.903057 3.836442 28.429670 -1.084533 5.444220 -63.393240 2.830761 4.014590 49.557698 -9.246142 -6.623351 -4.346434 0.000000 0.000000 0.000000 0.983677 1.182970 25.464685 -3.861438 -9.422729 -52.083789 -0.005124 4.119943 43.928611 9.204363 3.214440 -1.797606 0.000000 0.000000 0.000000 10.432221 -0.295104 41.927693 -10.518288 -3.359776 30.037994 -0.165025 0.705013 4.767007 0.027025 0.063154 0.033977 0.161784 1.113538 6.218316 -3.317559 -0.127762 -29.523517 0.000000 0.000000 0.000000 0.617523 2.163506 2.283346 6.116723 -20.516235 -4.838912 -63.478583 -49.380704 21.418707 11.109917 -53.551442 -0.950573 0.000000 0.000000 0.000000 -2.781587 3.754510 1.892359 5.971456 17.428677 5.040321 31.836181 44.213017 -13.858674 -7.945751 63.756537 -9.242755 0.000000 0.000000 0.000000 
-4.180734 81.428276 -0.089843 -179.810303 7.137688 -179.234641 -4.239543 3.866520 25.848721 -0.352081 4.819241 -60.655959 3.346639 3.418272 49.463854 -9.834392 -6.699388 -4.087317 0.000000 0.000000 0.000000 0.742578 1.368120 22.604062 -3.807747 -9.779077 -48.485491 -0.070926 4.011341 43.552455 9.311021 3.526411 -2.283147 0.000000 0.000000 0.000000 9.731597 0.622136 37.016907 -10.838246 -3.605849 28.442532 -0.234314 0.721545 5.121718 0.026812 0.006043 0.077612 0.062405 1.249336 6.476526 -3.651160 0.177902 -29.354722 0.000000 0.000000 0.000000 0.480827 2.261781 2.674092 5.933483 -19.815461 -4.503481 -62.843587 -47.595538 22.290162 11.534307 -54.752658 -0.699435 0.000000 0.000000 0.000000 -2.875237 3.850687 2.355811 6.221297 16.451001 5.416925 33.862145 43.052851 -10.750122 -7.661921 64.566038 -9.314815 0.000000 0.000000 0.000000 
-3.959129 81.644989 -0.467410 179.997970 6.745555 -179.191666 -4.516924 3.758961 23.610685 0.198545 3.865902 -57.869959 4.080644 2.917422 49.057694 -10.115690 -6.951281 -3.849256 0.000000 0.000000 0.000000 0.382269 1.270369 20.145264 -3.798917 -10.090157 -44.866341 -0.107799 3.747822 42.847385 9.545466 4.009781 -3.199733 0.000000 0.000000 0.000000 8.674320 1.374706 32.592389 -11.059909 -3.753733 26.873010 -0.272672 0.748768 5.333702 0.006047 -0.017958 0.064557 -0.043554 1.313557 6.745033 -4.046015 0.209164 -29.125269 0.000000 0.000000 0.000000 0.462788 2.295599 3.147506 5.549715 -19.044871 -4.046051 -61.877573 -45.887458 22.670660 11.607286 -55.902680 0.062630 0.000000 0.000000 0.000000 -2.883909 3.897076 2.744740 6.407537 15.386509 5.786256 35.642403 41.695440 -7.560237 -8.278203 65.534504 -10.654939 0.000000 0.000000 0.000000 
